<svg width="16" height="11" viewBox="0 0 16 11" fill="none" xmlns="http://www.w3.org/2000/svg">
<path fill-rule="evenodd" clip-rule="evenodd" d="M13.9392 4.65566C12.3333 3.12886 10.2021 2.27742 7.98622 2.27733C5.7701 2.27732 3.6387 3.12876 2.03255 4.65566C1.91169 4.77372 1.71824 4.77223 1.59922 4.65233L0.442882 3.48566C0.382618 3.42489 0.349053 3.34262 0.349616 3.25704C0.350179 3.17146 0.384823 3.08963 0.445882 3.02966C4.66098 -1.00989 11.3108 -1.00989 15.5259 3.02966C15.5869 3.08967 15.6215 3.17153 15.622 3.25711C15.6225 3.34269 15.5889 3.42494 15.5285 3.48566L14.3725 4.65233C14.2534 4.77205 14.0601 4.77354 13.9392 4.65566ZM7.98626 6.07299C9.20375 6.07292 10.3778 6.52545 11.2803 7.34266C11.4023 7.45864 11.5946 7.45612 11.7136 7.33699L12.8683 6.17032C12.9291 6.10913 12.9628 6.02611 12.9619 5.93985C12.9611 5.85358 12.9256 5.77127 12.8636 5.71132C10.1154 3.15494 5.85946 3.15494 3.11126 5.71132C3.04919 5.77127 3.01377 5.85362 3.01295 5.93992C3.01214 6.02621 3.046 6.10922 3.10693 6.17032L4.26126 7.33699C4.38025 7.45612 4.57253 7.45864 4.6946 7.34266C5.59647 6.52599 6.76958 6.07349 7.98626 6.07299ZM10.2052 8.85733C10.267 8.79672 10.301 8.71332 10.2992 8.62681C10.2974 8.54031 10.2601 8.45836 10.1959 8.40033C8.92031 7.32144 7.05212 7.32144 5.77655 8.40033C5.71233 8.45831 5.67488 8.54023 5.67305 8.62674C5.67122 8.71325 5.70517 8.79668 5.76688 8.85733L7.76455 10.873C7.8231 10.9322 7.90292 10.9656 7.98622 10.9656C8.06951 10.9656 8.14933 10.9322 8.20788 10.873L10.2052 8.85733Z" fill="black"/>
</svg>
